<?xml version="1.0" encoding="UTF-8" standalone="no"?>
<!-- Created with Inkscape (http://www.inkscape.org/) -->

<svg
   xmlns:dc="http://purl.org/dc/elements/1.1/"
   xmlns:cc="http://creativecommons.org/ns#"
   xmlns:rdf="http://www.w3.org/1999/02/22-rdf-syntax-ns#"
   xmlns:svg="http://www.w3.org/2000/svg"
   xmlns="http://www.w3.org/2000/svg"
   xmlns:sodipodi="http://sodipodi.sourceforge.net/DTD/sodipodi-0.dtd"
   xmlns:inkscape="http://www.inkscape.org/namespaces/inkscape"
   width="400"
   height="300"
   id="svg2"
   version="1.1"
   inkscape:version="0.48.4 r9939"
   sodipodi:docname="Novo documento 1">
  <defs
     id="defs4" />
  <sodipodi:namedview
     id="base"
     pagecolor="#ffffff"
     bordercolor="#666666"
     borderopacity="1.0"
     inkscape:pageopacity="0.29803922"
     inkscape:pageshadow="2"
     inkscape:zoom="3.3175"
     inkscape:cx="200"
     inkscape:cy="174.11454"
     inkscape:document-units="px"
     inkscape:current-layer="layer1"
     showgrid="false"
     inkscape:window-width="1869"
     inkscape:window-height="1176"
     inkscape:window-x="51"
     inkscape:window-y="24"
     inkscape:window-maximized="1" />
  <metadata
     id="metadata7">
    <rdf:RDF>
      <cc:Work
         rdf:about="">
        <dc:format>image/svg+xml</dc:format>
        <dc:type
           rdf:resource="http://purl.org/dc/dcmitype/StillImage" />
        <dc:title></dc:title>
      </cc:Work>
    </rdf:RDF>
  </metadata>
  <g
     inkscape:label="Camada 1"
     inkscape:groupmode="layer"
     id="layer1"
     transform="translate(0,-752.36218)">
    <rect
       style="fill:none;stroke:#000000;stroke-width:4;stroke-linecap:butt;stroke-linejoin:miter;stroke-miterlimit:4.19999981;stroke-opacity:1;stroke-dasharray:none"
       id="rect2995"
       width="371"
       height="179"
       x="16"
       y="803.36218" />
    <path
       sodipodi:type="arc"
       style="fill:none;stroke:#000000;stroke-width:4;stroke-linejoin:miter;stroke-miterlimit:4.19999981;stroke-opacity:1;stroke-dasharray:none"
       id="path5203"
       sodipodi:cx="249.5"
       sodipodi:cy="274"
       sodipodi:rx="10.5"
       sodipodi:ry="11"
       d="m 260,274 a 10.5,11 0 1 1 -21,0 10.5,11 0 1 1 21,0 z"
       transform="translate(136,568.36218)" />
    <path
       sodipodi:type="arc"
       style="fill:none;stroke:#000000;stroke-width:4;stroke-linejoin:miter;stroke-miterlimit:4.19999981;stroke-opacity:1;stroke-dasharray:none"
       id="path5203-8"
       sodipodi:cx="249.5"
       sodipodi:cy="274"
       sodipodi:rx="10.5"
       sodipodi:ry="11"
       d="m 260,274 a 10.5,11 0 1 1 -21,0 10.5,11 0 1 1 21,0 z"
       transform="translate(136.5,622.36218)" />
    <path
       sodipodi:type="arc"
       style="fill:none;stroke:#000000;stroke-width:4;stroke-linejoin:miter;stroke-miterlimit:4.19999981;stroke-opacity:1;stroke-dasharray:none"
       id="path5203-81"
       sodipodi:cx="249.5"
       sodipodi:cy="274"
       sodipodi:rx="10.5"
       sodipodi:ry="11"
       d="m 260,274 a 10.5,11 0 1 1 -21,0 10.5,11 0 1 1 21,0 z"
       transform="translate(135.5,675.3622)" />
    <path
       sodipodi:type="arc"
       style="fill:none;stroke:#000000;stroke-width:4;stroke-linejoin:miter;stroke-miterlimit:4.19999981;stroke-opacity:1;stroke-dasharray:none"
       id="path5203-82"
       sodipodi:cx="249.5"
       sodipodi:cy="274"
       sodipodi:rx="10.5"
       sodipodi:ry="11"
       d="m 260,274 a 10.5,11 0 1 1 -21,0 10.5,11 0 1 1 21,0 z"
       transform="translate(-231.5,568.86217)" />
    <path
       sodipodi:type="arc"
       style="fill:none;stroke:#000000;stroke-width:4;stroke-linejoin:miter;stroke-miterlimit:4.19999981;stroke-opacity:1;stroke-dasharray:none"
       id="path5203-8-1"
       sodipodi:cx="249.5"
       sodipodi:cy="274"
       sodipodi:rx="10.5"
       sodipodi:ry="11"
       d="m 260,274 a 10.5,11 0 1 1 -21,0 10.5,11 0 1 1 21,0 z"
       transform="translate(-231,622.86217)" />
    <path
       sodipodi:type="arc"
       style="fill:none;stroke:#000000;stroke-width:4;stroke-linejoin:miter;stroke-miterlimit:4.19999981;stroke-opacity:1;stroke-dasharray:none"
       id="path5203-81-4"
       sodipodi:cx="249.5"
       sodipodi:cy="274"
       sodipodi:rx="10.5"
       sodipodi:ry="11"
       d="m 260,274 a 10.5,11 0 1 1 -21,0 10.5,11 0 1 1 21,0 z"
       transform="translate(-232,675.86219)" />
  </g>
</svg>
